<svg width="800" height="800" viewBox="0 0 800 800" fill="none" xmlns="http://www.w3.org/2000/svg">
<g clip-path="url(#clip0_502_65)">
<mask id="mask0_502_65" style="mask-type:luminance" maskUnits="userSpaceOnUse" x="0" y="0" width="800" height="800">
<path d="M800 0H0V800H800V0Z" fill="white"/>
</mask>
<g mask="url(#mask0_502_65)">
<path d="M477.404 411.887L468.737 397.65C463.127 401.067 460.047 407.457 460.87 413.973C461.69 420.487 466.26 425.913 472.544 427.83L477.404 411.887ZM321.634 411.887L326.495 427.83C332.777 425.913 337.347 420.487 338.17 413.973C338.99 407.457 335.91 401.067 330.3 397.65L321.634 411.887ZM532.854 283.667C532.854 331.933 507.217 374.227 468.737 397.65L477.404 411.887L486.07 426.123C534.07 396.903 566.187 344.043 566.187 283.667H532.854ZM399.52 150.333C473.157 150.333 532.854 210.029 532.854 283.667H566.187C566.187 191.619 491.567 117 399.52 117V150.333ZM266.186 283.667C266.186 210.029 325.881 150.333 399.52 150.333V117C307.472 117 232.852 191.619 232.852 283.667H266.186ZM330.3 397.65C291.822 374.227 266.186 331.933 266.186 283.667H232.852C232.852 344.043 264.968 396.903 312.968 426.123L330.3 397.65ZM316.773 395.943C211.548 428.03 132.306 519.68 118.368 631.673L151.446 635.79C163.733 537.06 233.647 456.14 326.495 427.83L316.773 395.943ZM118.368 631.673C114.685 661.273 139.205 683.667 166.186 683.667V650.333C156.347 650.333 150.583 642.73 151.446 635.79L118.368 631.673ZM166.186 683.667H632.854V650.333H166.186V683.667ZM632.854 683.667C659.834 683.667 684.354 661.273 680.67 631.673L647.59 635.79C648.454 642.73 642.69 650.333 632.854 650.333V683.667ZM680.67 631.673C666.734 519.68 587.49 428.03 482.264 395.943L477.404 411.887L472.544 427.83C565.39 456.14 635.304 537.06 647.59 635.79L680.67 631.673Z" fill="black"/>
<path d="M477.404 411.887L468.737 397.65C463.127 401.067 460.047 407.457 460.87 413.973C461.69 420.487 466.26 425.913 472.544 427.83L477.404 411.887ZM321.634 411.887L326.495 427.83C332.777 425.913 337.347 420.487 338.17 413.973C338.99 407.457 335.91 401.067 330.3 397.65L321.634 411.887ZM532.854 283.667C532.854 331.933 507.217 374.227 468.737 397.65L477.404 411.887L486.07 426.123C534.07 396.903 566.187 344.043 566.187 283.667H532.854ZM399.52 150.333C473.157 150.333 532.854 210.029 532.854 283.667H566.187C566.187 191.619 491.567 117 399.52 117V150.333ZM266.186 283.667C266.186 210.029 325.881 150.333 399.52 150.333V117C307.472 117 232.852 191.619 232.852 283.667H266.186ZM330.3 397.65C291.822 374.227 266.186 331.933 266.186 283.667H232.852C232.852 344.043 264.968 396.903 312.968 426.123L330.3 397.65ZM316.773 395.943C211.548 428.03 132.306 519.68 118.368 631.673L151.446 635.79C163.733 537.06 233.647 456.14 326.495 427.83L316.773 395.943ZM118.368 631.673C114.685 661.273 139.205 683.667 166.186 683.667V650.333C156.347 650.333 150.583 642.73 151.446 635.79L118.368 631.673ZM166.186 683.667H632.854V650.333H166.186V683.667ZM632.854 683.667C659.834 683.667 684.354 661.273 680.67 631.673L647.59 635.79C648.454 642.73 642.69 650.333 632.854 650.333V683.667ZM680.67 631.673C666.734 519.68 587.49 428.03 482.264 395.943L477.404 411.887L472.544 427.83C565.39 456.14 635.304 537.06 647.59 635.79L680.67 631.673Z" fill="black"/>
</g>
</g>
<defs>
<clipPath id="clip0_502_65">
<rect width="800" height="800" fill="white"/>
</clipPath>
</defs>
</svg>
